<?xml version="1.0" standalone="no"?>
<!DOCTYPE svg PUBLIC "-//W3C//DTD SVG 20010904//EN"
 "http://www.w3.org/TR/2001/REC-SVG-20010904/DTD/svg10.dtd">
<svg version="1.0" xmlns="http://www.w3.org/2000/svg"
 width="511.000000pt" height="703.000000pt" viewBox="0 0 511.000000 703.000000"
 preserveAspectRatio="xMidYMid meet">

<g transform="translate(0.000000,703.000000) scale(0.100000,-0.100000)"
fill="#000000" stroke="none">
<path d="M1970 6706 c-550 -175 -925 -396 -1027 -603 -72 -148 -10 -381 158
-583 197 -239 224 -289 224 -410 -1 -127 -86 -373 -226 -654 -44 -87 -77 -161
-75 -163 8 -8 157 120 239 207 162 170 255 346 279 527 21 149 -9 247 -179
588 -107 214 -127 276 -128 391 0 84 2 95 38 167 90 183 331 350 772 537 160
68 147 67 -75 -4z"/>
<path d="M4185 6714 c-649 -177 -1211 -499 -1515 -869 -127 -155 -207 -297
-269 -480 -52 -154 -71 -267 -71 -420 0 -220 50 -413 170 -649 80 -159 152
-274 320 -516 546 -782 648 -967 711 -1285 22 -110 19 -467 -5 -575 -116 -532
-469 -992 -1001 -1302 -84 -49 -236 -122 -318 -153 -26 -10 -45 -20 -43 -22 8
-8 277 48 401 84 474 135 823 320 1091 579 199 193 330 430 390 704 29 132 27
464 -4 620 -97 485 -304 927 -740 1580 -232 346 -291 444 -367 603 -273 569
-202 1009 230 1425 228 220 550 426 979 626 185 87 187 90 41 50z"/>
<path d="M1024 3750 c91 -422 219 -757 377 -985 117 -170 246 -241 336 -185
18 10 51 49 73 85 78 122 223 232 485 366 83 42 214 103 292 135 78 32 141 59
140 60 -1 1 -54 -5 -117 -13 -75 -10 -199 -16 -355 -16 -209 -1 -257 2 -370
22 -397 70 -671 234 -830 496 -21 35 -34 50 -31 35z"/>
</g>
</svg>
