<?xml version="1.0" standalone="no"?>
<!DOCTYPE svg PUBLIC "-//W3C//DTD SVG 20010904//EN"
 "http://www.w3.org/TR/2001/REC-SVG-20010904/DTD/svg10.dtd">
<svg version="1.0" xmlns="http://www.w3.org/2000/svg"
 width="1600.000000pt" height="941.000000pt" viewBox="0 0 1600.000000 941.000000"
 preserveAspectRatio="xMidYMid meet">

<g transform="translate(0.000000,941.000000) scale(0.100000,-0.100000)"
fill="#000000" stroke="none">
<path d="M4175 8635 c-22 -7 -107 -34 -190 -60 -516 -162 -940 -378 -1141
-581 -153 -153 -193 -287 -145 -486 44 -186 99 -278 339 -563 122 -145 170
-266 158 -395 -10 -109 -94 -367 -196 -600 -50 -114 -156 -324 -183 -363 -29
-42 -16 -42 40 0 310 233 532 534 593 806 19 81 22 117 17 205 -8 160 -19 190
-219 602 -144 295 -168 369 -168 511 1 141 52 253 174 379 151 156 438 326
816 484 74 32 144 61 155 66 31 14 -4 10 -50 -5z"/>
<path d="M6790 8594 c-310 -80 -642 -205 -941 -355 -606 -302 -1039 -706
-1243 -1159 -48 -105 -109 -290 -130 -391 -39 -188 -39 -420 0 -614 32 -158
125 -407 209 -556 19 -33 35 -63 35 -65 0 -3 42 -73 94 -157 88 -142 183 -285
361 -537 245 -350 366 -530 482 -725 111 -184 151 -263 202 -398 213 -559 143
-1187 -195 -1743 -26 -44 -51 -83 -56 -89 -4 -5 -43 -57 -85 -115 -95 -127
-273 -314 -408 -427 -121 -101 -340 -250 -490 -331 -100 -55 -306 -149 -363
-167 -13 -4 -21 -9 -18 -12 8 -9 244 37 404 78 488 125 912 316 1230 553 138
103 358 324 445 446 225 319 331 715 299 1122 -33 434 -151 818 -409 1338
-174 350 -327 600 -686 1125 -196 286 -351 580 -433 820 -248 724 16 1313 831
1855 260 173 483 294 875 477 128 59 127 63 -10 27z"/>
<path d="M12562 6080 c-146 -39 -256 -119 -310 -229 -24 -50 -27 -67 -27 -161
0 -101 1 -108 34 -168 62 -114 173 -196 431 -317 225 -106 358 -204 408 -301
75 -147 37 -365 -84 -487 -108 -107 -284 -144 -466 -98 -145 37 -250 112 -305
218 -36 68 -41 88 -58 208 l-13 90 0 -195 c0 -137 3 -182 9 -151 13 65 23 69
57 19 47 -68 118 -127 195 -163 101 -47 175 -59 315 -52 171 8 268 39 388 123
138 97 202 236 192 415 -12 200 -119 330 -373 453 -60 30 -180 88 -265 129
-178 86 -244 137 -286 222 -23 48 -26 64 -22 137 4 101 31 161 100 223 62 55
106 76 195 89 126 18 244 -21 337 -110 57 -56 91 -123 105 -213 6 -36 15 -91
20 -121 6 -41 9 -6 9 145 0 154 -2 190 -10 155 -5 -25 -13 -49 -18 -53 -4 -5
-24 13 -44 40 -115 151 -304 208 -514 153z"/>
<path d="M6530 6060 c0 -5 24 -10 53 -10 63 0 113 -27 124 -67 10 -37 10
-1539 0 -1576 -11 -40 -61 -67 -124 -67 -29 0 -53 -4 -53 -10 0 -6 102 -10
285 -10 183 0 285 4 285 10 0 6 -23 10 -51 10 -67 0 -115 23 -128 62 -7 20
-11 167 -11 409 l0 379 435 0 435 0 0 -380 c0 -424 -2 -438 -60 -459 -18 -6
-55 -11 -81 -11 -27 0 -49 -4 -49 -10 0 -7 150 -10 430 -10 280 0 430 3 430
10 0 6 -22 10 -49 10 -34 0 -56 6 -76 22 -25 19 -27 26 -22 67 3 25 28 116 56
201 27 85 57 181 67 213 l18 57 347 0 347 0 76 -230 c42 -126 76 -243 76 -258
0 -42 -31 -65 -95 -70 -30 -2 -55 -8 -55 -13 0 -5 128 -9 285 -9 183 0 285 4
285 10 0 6 -23 10 -52 10 -71 0 -128 29 -157 81 -13 22 -143 401 -290 842
l-268 802 -166 3 c-109 2 -167 -1 -167 -8 0 -5 16 -10 35 -10 44 0 100 -22
113 -45 12 -23 12 -26 -111 -415 -58 -184 -142 -450 -186 -590 -44 -140 -102
-327 -130 -414 -27 -88 -58 -171 -69 -185 -33 -46 -78 -62 -161 -59 -66 3 -76
6 -97 31 l-24 28 0 784 c0 565 3 791 11 809 16 34 66 56 129 56 31 0 49 4 45
10 -4 6 -110 10 -285 10 -175 0 -281 -4 -285 -10 -4 -6 13 -10 44 -10 66 0
117 -25 131 -63 6 -19 10 -171 10 -403 l0 -374 -435 0 -436 0 3 390 3 390 26
26 c22 21 39 27 93 31 36 3 66 10 66 14 0 5 -128 9 -285 9 -183 0 -285 -4
-285 -10z m2428 -622 l171 -513 -336 -3 c-185 -1 -338 -1 -339 1 -2 2 9 43 25
93 16 49 52 161 79 249 28 88 88 278 133 423 45 144 86 262 89 262 4 0 84
-231 178 -512z"/>
<path d="M9755 6060 c-4 -6 14 -10 45 -10 68 0 116 -23 129 -62 16 -46 15
-1558 -1 -1593 -17 -37 -57 -55 -123 -55 -30 0 -55 -4 -55 -10 0 -6 102 -10
285 -10 158 0 285 4 285 9 0 5 -29 11 -65 13 -51 3 -70 9 -88 26 -22 22 -22
25 -25 391 l-3 368 163 6 c241 8 356 45 462 150 97 95 131 183 130 332 -1 79
-6 112 -23 158 -62 158 -209 258 -424 287 -102 13 -684 14 -692 0z m725 -37
c143 -71 220 -217 220 -416 0 -161 -41 -278 -126 -364 -73 -73 -115 -86 -287
-93 l-147 -5 0 453 0 452 143 0 c135 0 146 -1 197 -27z"/>
<path d="M10946 6061 c-3 -5 24 -11 59 -13 55 -3 70 -8 93 -31 l27 -27 3 -783
c2 -575 -1 -789 -9 -810 -16 -37 -57 -57 -119 -57 -27 0 -50 -4 -50 -10 0 -7
190 -10 550 -10 l550 0 -1 103 c-2 99 -3 100 -15 8 -3 -27 -15 -53 -29 -67
l-24 -24 -326 0 -325 0 0 425 0 425 228 0 c192 0 231 -2 250 -16 28 -20 42
-52 52 -124 5 -36 7 15 8 150 0 195 -1 201 -12 131 -10 -60 -18 -79 -40 -98
-27 -23 -30 -23 -257 -23 l-229 0 0 420 0 420 294 0 c171 0 306 -4 321 -10 31
-12 55 -63 55 -120 0 -22 5 -40 10 -40 7 0 10 33 8 93 l-3 92 -532 3 c-304 1
-534 -2 -537 -7z"/>
<path d="M2826 4845 c35 -168 135 -512 190 -653 121 -313 247 -534 380 -668
86 -86 157 -124 229 -124 71 0 108 27 171 123 64 98 87 122 199 212 107 85
230 161 415 254 134 69 468 215 516 227 60 15 5 14 -128 -2 -109 -14 -217 -18
-453 -18 -279 0 -323 2 -445 23 -492 85 -854 298 -1037 614 -25 42 -47 77 -48
77 -1 0 4 -29 11 -65z"/>
<path d="M7114 4107 c-2 -7 -3 -80 -2 -162 l3 -150 75 -3 c57 -3 83 1 108 14
58 31 61 112 6 149 -28 19 -29 21 -15 46 34 61 -23 119 -117 119 -34 0 -54 -5
-58 -13z m127 -37 c12 -7 19 -21 19 -40 0 -35 -23 -50 -74 -50 l-36 0 0 50 0
50 36 0 c19 0 44 -5 55 -10z m51 -150 c23 -28 23 -42 -1 -71 -16 -20 -28 -23
-77 -24 l-59 0 -3 49 c-5 75 -1 79 65 74 43 -4 61 -10 75 -28z"/>
<path d="M7450 4115 c0 -3 25 -46 55 -96 52 -86 55 -93 55 -158 0 -72 4 -83
26 -74 10 4 14 24 14 72 0 64 2 71 55 154 58 92 64 107 40 107 -9 0 -38 -34
-64 -76 l-49 -76 -49 76 c-29 46 -55 76 -65 76 -10 0 -18 -2 -18 -5z"/>
<path d="M8290 4000 l0 -122 -32 -30 c-29 -27 -37 -30 -80 -25 -75 9 -79 -28
-4 -40 45 -7 103 17 131 55 17 24 20 43 20 152 0 111 -2 125 -17 128 -16 3
-18 -8 -18 -118z"/>
<path d="M8520 3955 l0 -165 98 0 c81 0 99 3 99 15 0 12 -16 15 -79 15 l-78 0
0 60 0 60 65 0 c58 0 65 2 65 20 0 18 -7 20 -65 20 l-65 0 0 50 0 50 75 0 c68
0 75 2 75 20 0 19 -7 20 -95 20 l-95 0 0 -165z"/>
<path d="M8927 4092 c-32 -33 -36 -81 -9 -105 10 -9 40 -26 67 -38 63 -27 85
-46 85 -74 0 -53 -83 -74 -134 -34 -18 14 -31 18 -37 12 -16 -16 0 -40 36 -57
98 -47 206 24 170 111 -10 23 -28 37 -72 57 -87 40 -88 41 -88 72 0 39 39 59
84 43 17 -6 31 -15 31 -20 0 -13 28 -11 36 3 4 6 -4 21 -20 35 -41 35 -113 33
-149 -5z"/>
<path d="M9290 3955 l0 -165 100 0 c82 0 100 3 100 15 0 12 -16 15 -80 15
l-80 0 0 60 0 59 68 3 c52 2 67 6 67 18 0 12 -15 16 -67 18 l-68 3 0 49 0 49
78 3 c60 2 77 6 77 18 0 12 -19 16 -97 18 l-98 3 0 -166z"/>
<path d="M9910 4000 c0 -66 -2 -120 -6 -120 -3 0 -31 28 -62 62 -31 34 -80 87
-109 117 l-52 56 -1 -162 c0 -144 7 -192 24 -165 3 5 6 59 7 120 1 62 4 112 8
112 3 0 53 -52 109 -115 57 -63 107 -113 110 -111 4 2 6 76 4 165 -2 133 -6
161 -17 161 -12 0 -15 -22 -15 -120z"/>
<path d="M10140 3957 c0 -90 3 -166 6 -170 3 -3 12 -3 20 0 11 4 14 38 14 169
0 157 -1 164 -20 164 -19 0 -20 -7 -20 -163z"/>
<path d="M10486 4089 c-8 -20 -38 -86 -67 -145 -73 -156 -72 -154 -49 -154 12
0 25 10 32 25 11 24 15 25 104 25 88 0 92 -1 98 -24 3 -13 15 -26 27 -29 19
-5 21 -2 16 21 -3 15 -37 92 -75 172 l-70 145 -16 -36z m62 -141 c17 -37 27
-70 21 -73 -11 -8 -129 -4 -133 4 -6 12 65 154 73 145 4 -5 22 -39 39 -76z"/>
<path d="M11057 4114 c-21 -21 -5 -34 43 -34 l50 0 0 -143 c0 -79 3 -146 6
-150 3 -3 12 -3 20 0 11 4 14 35 14 149 l0 143 48 3 c34 2 47 7 47 18 0 12
-20 16 -111 18 -60 1 -113 -1 -117 -4z"/>
<path d="M11480 3983 c-34 -76 -68 -150 -75 -165 -13 -26 -12 -28 10 -28 16 0
25 7 29 25 6 24 8 25 101 25 85 0 94 -2 100 -20 7 -23 41 -44 49 -31 5 8 -127
307 -143 324 -4 4 -36 -54 -71 -130z m105 -25 c18 -40 31 -76 29 -80 -8 -13
-134 -9 -134 4 0 13 61 148 67 148 2 0 19 -33 38 -72z"/>
<path d="M11870 3957 c0 -90 3 -166 6 -170 3 -3 12 -3 20 0 10 4 14 23 14 64
l0 59 53 0 c79 0 127 37 127 100 0 72 -53 110 -155 110 l-65 0 0 -163z m158
106 c58 -50 20 -113 -68 -113 l-50 0 0 65 0 65 49 0 c32 0 56 -6 69 -17z"/>
<path d="M12270 3956 c0 -110 4 -167 11 -172 21 -13 29 21 29 126 0 139 -9
210 -26 210 -11 0 -14 -32 -14 -164z"/>
<path d="M12612 4093 c-6 -16 -38 -87 -71 -160 -34 -72 -61 -134 -61 -137 0
-18 38 -2 48 19 11 24 15 25 102 25 87 0 91 -1 102 -25 10 -23 54 -38 46 -16
-18 49 -145 321 -150 321 -3 0 -11 -12 -16 -27z m50 -123 c43 -96 43 -95 -34
-98 -38 -2 -68 1 -68 6 0 15 62 152 69 152 4 0 19 -27 33 -60z"/>
<path d="M7882 3978 c-27 -27 -6 -68 35 -68 31 0 52 42 33 65 -15 18 -51 20
-68 3z"/>
<path d="M10800 3975 c-21 -26 3 -65 40 -65 23 0 31 5 36 25 4 15 1 32 -6 40
-16 19 -54 19 -70 0z"/>
</g>
</svg>
